<?xml version="1.0" encoding="utf-8"?>
<!-- Generator: Adobe Illustrator 27.9.0, SVG Export Plug-In . SVG Version: 6.00 Build 0)  -->
<svg version="1.1" xmlns="http://www.w3.org/2000/svg" xmlns:xlink="http://www.w3.org/1999/xlink" x="0px" y="0px"
	 viewBox="0 0 800 500" style="enable-background:new 0 0 800 500;" xml:space="preserve">
<style type="text/css">
	.st0{fill:#040009;}
	.st1{fill:#1E1840;}
	.st2{fill:#181235;}
	.st3{fill:#130C2A;}
	.st4{fill:#0D071F;}
	.st5{fill:#080314;}
	.st6{display:none;}
	.st7{display:inline;fill:#FFFFFF;}
</style>
<g id="_x32_40">
	<g>
		<g>
			<rect y="-0.5" class="st0" width="800" height="500"/>
			<path class="st1" d="M0,222.5l44.5,9.38c44.5,9.46,133.5,28.21,222.3,40.58c88.9,12.28,177.5,18.09,266.4,21.99
				c88.8,3.82,177.8,5.81,222.3,6.72l44.5,1V500.5h-44.5c-44.5,0-133.5,0-222.3,0c-88.9,0-177.5,0-266.4,0c-88.8,0-177.8,0-222.3,0
				H0V222.5z"/>
			<path class="st2" d="M0,343.58l44.5-12.04C89,319.57,178,295.48,266.8,285.05c88.9-10.43,177.5-7.38,266.4-11.03
				c88.8-3.65,177.8-14.17,222.3-19.34l44.5-5.26V500.5h-44.5c-44.5,0-133.5,0-222.3,0c-88.9,0-177.5,0-266.4,0
				c-88.8,0-177.8,0-222.3,0H0V343.58z"/>
			<path class="st3" d="M0,302.5l44.5,6.5c44.5,6.5,133.5,19.5,222.3,15.8c88.9-3.6,177.5-24,266.4-32.6
				c88.8-8.7,177.8-5.7,222.3-4.2l44.5,1.5v211h-44.5c-44.5,0-133.5,0-222.3,0c-88.9,0-177.5,0-266.4,0c-88.8,0-177.8,0-222.3,0H0
				V302.5z"/>
			<path class="st4" d="M0,316.5l44.5,11.3c44.5,11.4,133.5,34,222.3,35.9c88.9,1.8,177.5-17.2,266.4-28.7
				c88.8-11.5,177.8-15.5,222.3-17.5l44.5-2v185h-44.5c-44.5,0-133.5,0-222.3,0c-88.9,0-177.5,0-266.4,0c-88.8,0-177.8,0-222.3,0H0
				V316.5z"/>
			<path class="st5" d="M0,432.5l44.5-7c44.5-7,133.5-21,222.3-20.8c88.9,0.1,177.5,14.5,266.4,21.6c88.8,7.2,177.8,7.2,222.3,7.2
				H800v67h-44.5c-44.5,0-133.5,0-222.3,0c-88.9,0-177.5,0-266.4,0c-88.8,0-177.8,0-222.3,0H0V432.5z"/>
			<path class="st0" d="M0,447.5l44.5-5.7c44.5-5.6,133.5-17,222.3-14.6c88.9,2.3,177.5,18.3,266.4,18.1
				c88.8-0.1,177.8-16.5,222.3-24.6l44.5-8.2v88h-44.5c-44.5,0-133.5,0-222.3,0c-88.9,0-177.5,0-266.4,0c-88.8,0-177.8,0-222.3,0H0
				V447.5z"/>
		</g>
		<g class="st6">
			<polygon class="st7" points="98.15,35.11 99.94,39.07 101.51,39.07 103.3,35.11 103.3,40.74 106.23,40.74 106.23,30.06 
				103.04,30.06 100.72,35.08 98.42,30.06 95.22,30.06 95.22,40.74 98.15,40.74 			"/>
			<path class="st7" d="M108.97,39.14c0.47,0.51,1.04,0.91,1.7,1.22c0.66,0.31,1.4,0.47,2.21,0.47c0.79,0,1.52-0.15,2.19-0.45
				s1.24-0.7,1.72-1.2c0.48-0.5,0.86-1.07,1.13-1.71c0.27-0.65,0.41-1.32,0.41-2.02c0-0.68-0.13-1.35-0.38-2
				c-0.26-0.65-0.62-1.23-1.09-1.75c-0.47-0.51-1.04-0.92-1.7-1.23c-0.66-0.31-1.4-0.47-2.21-0.47c-0.79,0-1.52,0.15-2.19,0.44
				c-0.67,0.3-1.24,0.69-1.73,1.19c-0.49,0.5-0.87,1.07-1.14,1.72c-0.27,0.65-0.41,1.33-0.41,2.03c0,0.69,0.13,1.36,0.39,2.02
				C108.13,38.05,108.5,38.63,108.97,39.14z M110.6,34.38c0.09-0.34,0.24-0.64,0.44-0.9c0.2-0.27,0.45-0.48,0.76-0.64
				c0.31-0.16,0.67-0.24,1.09-0.24c0.41,0,0.77,0.08,1.08,0.23c0.31,0.16,0.56,0.36,0.77,0.62c0.21,0.26,0.36,0.55,0.46,0.89
				c0.1,0.34,0.15,0.68,0.15,1.04c0,0.35-0.05,0.7-0.14,1.04c-0.09,0.34-0.24,0.64-0.44,0.91c-0.2,0.27-0.45,0.48-0.76,0.65
				c-0.31,0.17-0.68,0.25-1.1,0.25c-0.42,0-0.79-0.08-1.09-0.24c-0.31-0.16-0.56-0.37-0.76-0.63c-0.2-0.26-0.35-0.56-0.45-0.89
				c-0.1-0.34-0.15-0.69-0.15-1.05C110.46,35.06,110.5,34.72,110.6,34.38z"/>
			<path class="st7" d="M125.89,40.36c0.66-0.25,1.23-0.62,1.7-1.08c0.47-0.47,0.83-1.03,1.09-1.69c0.26-0.66,0.38-1.39,0.38-2.2
				c0-0.73-0.12-1.42-0.35-2.07c-0.23-0.65-0.57-1.21-1.02-1.69c-0.45-0.48-1.01-0.86-1.68-1.14c-0.67-0.28-1.45-0.42-2.33-0.42
				h-4.11v10.68h4.11C124.49,40.74,125.23,40.61,125.89,40.36z M122.5,32.62h1.17c0.37,0,0.71,0.07,1.01,0.2
				c0.3,0.13,0.55,0.32,0.76,0.56c0.21,0.24,0.36,0.53,0.47,0.87c0.11,0.34,0.17,0.72,0.17,1.13c0,0.4-0.05,0.77-0.16,1.11
				c-0.11,0.34-0.26,0.64-0.47,0.89c-0.21,0.25-0.46,0.45-0.76,0.59c-0.3,0.14-0.64,0.21-1.02,0.21h-1.17V32.62z"/>
			<polygon class="st7" points="137.95,38.18 133.27,38.18 133.27,36.5 137.16,36.5 137.16,34.12 133.27,34.12 133.27,32.62 
				137.82,32.62 137.82,30.06 130.34,30.06 130.34,40.74 137.95,40.74 			"/>
			<path class="st7" d="M142.25,37.46h1.1l1.88,3.28h3.31l-2.26-3.93c0.48-0.34,0.86-0.78,1.13-1.32c0.27-0.54,0.41-1.12,0.41-1.74
				c0-0.45-0.09-0.9-0.27-1.35c-0.18-0.45-0.43-0.84-0.74-1.19c-0.32-0.35-0.69-0.63-1.14-0.84c-0.44-0.21-0.92-0.32-1.44-0.32h-4.9
				v10.68h2.93V37.46z M142.25,32.62h1.78c0.18,0,0.36,0.1,0.54,0.29c0.18,0.2,0.27,0.48,0.27,0.85c0,0.36-0.08,0.64-0.23,0.84
				c-0.16,0.2-0.32,0.3-0.5,0.3h-1.85V32.62z"/>
			<polygon class="st7" points="152.41,35.49 156.65,40.74 158.98,40.74 158.98,30.06 156.05,30.06 156.05,35.49 151.76,30.06 
				149.47,30.06 149.47,40.74 152.41,40.74 			"/>
			<path class="st7" d="M70.9,81.78c0.44-0.2,0.78-0.51,1.03-0.91c0.25-0.41,0.37-0.86,0.37-1.35c0-0.3-0.05-0.6-0.16-0.9
				c-0.11-0.3-0.25-0.56-0.45-0.8c-0.19-0.23-0.43-0.42-0.7-0.57c-0.27-0.15-0.58-0.22-0.92-0.22h-4.7v9.76h4.61
				c0.38,0,0.73-0.06,1.06-0.19c0.33-0.12,0.62-0.3,0.87-0.52c0.25-0.22,0.44-0.49,0.59-0.8c0.15-0.31,0.22-0.64,0.22-1.01
				c0-0.6-0.16-1.12-0.49-1.57C71.91,82.25,71.46,81.94,70.9,81.78z M66.34,77.86h3.44c0.23,0,0.44,0.05,0.63,0.14
				c0.19,0.1,0.36,0.22,0.5,0.38c0.14,0.16,0.25,0.35,0.33,0.57c0.08,0.22,0.12,0.45,0.12,0.7c0,0.24-0.04,0.46-0.12,0.68
				c-0.08,0.21-0.2,0.4-0.34,0.57c-0.15,0.16-0.32,0.3-0.53,0.4c-0.21,0.1-0.43,0.15-0.67,0.15h-3.35V77.86z M71.62,84.79
				c-0.09,0.22-0.22,0.42-0.38,0.59c-0.16,0.17-0.35,0.3-0.56,0.41c-0.22,0.1-0.45,0.15-0.69,0.15h-3.64v-3.7h3.74
				c0.24,0,0.46,0.05,0.67,0.16c0.21,0.11,0.39,0.24,0.54,0.41c0.15,0.17,0.27,0.37,0.35,0.59c0.08,0.22,0.12,0.46,0.12,0.69
				C71.76,84.34,71.71,84.57,71.62,84.79z"/>
			<path class="st7" d="M80.65,77.02l-4.08,9.76h1.03l1.25-3.05h4.38l1.27,3.05h1.02l-4.06-9.76H80.65z M79.06,82.97l1.99-4.83
				l1.97,4.83H79.06z"/>
			<path class="st7" d="M96.27,85c-0.23,0.23-0.48,0.41-0.75,0.56c-0.27,0.15-0.55,0.26-0.84,0.33c-0.29,0.07-0.57,0.1-0.85,0.1
				c-0.52,0-1.01-0.11-1.45-0.34c-0.44-0.22-0.83-0.53-1.15-0.91c-0.33-0.38-0.58-0.82-0.77-1.31c-0.19-0.5-0.28-1.01-0.28-1.55
				c0-0.5,0.08-0.98,0.23-1.46c0.16-0.48,0.39-0.91,0.69-1.3c0.31-0.38,0.69-0.7,1.13-0.94c0.45-0.24,0.97-0.36,1.55-0.36
				c0.27,0,0.54,0.03,0.81,0.09c0.28,0.06,0.54,0.16,0.8,0.3c0.26,0.14,0.5,0.32,0.72,0.54c0.22,0.22,0.41,0.49,0.57,0.81l0.76-0.47
				c-0.29-0.63-0.75-1.15-1.37-1.54c-0.62-0.39-1.36-0.59-2.23-0.59c-0.73,0-1.39,0.14-1.97,0.43c-0.58,0.29-1.06,0.66-1.46,1.12
				c-0.39,0.46-0.69,0.98-0.9,1.56c-0.21,0.58-0.31,1.17-0.31,1.75c0,0.62,0.11,1.23,0.34,1.83c0.22,0.6,0.54,1.14,0.94,1.61
				c0.4,0.47,0.88,0.85,1.44,1.15c0.56,0.29,1.17,0.44,1.84,0.44c0.38,0,0.76-0.05,1.15-0.15c0.39-0.1,0.76-0.25,1.11-0.44
				c0.35-0.19,0.66-0.43,0.95-0.71c0.28-0.28,0.5-0.6,0.66-0.97l-0.8-0.41C96.69,84.5,96.5,84.78,96.27,85z"/>
			<polygon class="st7" points="109.99,77.02 108.93,77.02 103.55,82.7 103.55,77.03 102.59,77.03 102.59,86.78 103.55,86.78 
				103.55,83.78 105.39,81.87 109.13,86.78 110.19,86.78 106,81.31 			"/>
			<path class="st7" d="M119.09,82.72h2.17v1.62c-0.47,0.57-0.96,0.98-1.46,1.24c-0.51,0.26-1.04,0.39-1.6,0.39
				c-0.52,0-1.01-0.11-1.45-0.33c-0.45-0.22-0.83-0.52-1.16-0.89c-0.33-0.37-0.59-0.8-0.78-1.3c-0.19-0.49-0.28-1.02-0.28-1.57
				c0-0.52,0.08-1.03,0.25-1.52c0.16-0.49,0.4-0.93,0.71-1.31c0.31-0.38,0.68-0.68,1.11-0.91c0.44-0.23,0.92-0.34,1.46-0.34
				c0.65,0,1.23,0.14,1.75,0.43c0.51,0.28,0.93,0.73,1.25,1.33l0.74-0.49c-0.16-0.31-0.35-0.6-0.57-0.86
				c-0.23-0.26-0.49-0.49-0.8-0.67c-0.31-0.19-0.66-0.33-1.05-0.44c-0.39-0.11-0.83-0.16-1.31-0.16c-0.65,0-1.25,0.13-1.8,0.41
				c-0.55,0.27-1.03,0.63-1.43,1.09c-0.4,0.45-0.72,0.98-0.94,1.57c-0.23,0.59-0.34,1.22-0.34,1.87c0,0.62,0.11,1.23,0.34,1.82
				c0.23,0.59,0.55,1.12,0.96,1.59c0.41,0.47,0.89,0.84,1.44,1.13c0.55,0.28,1.16,0.43,1.82,0.43c1.18,0,2.23-0.5,3.13-1.5v1.43
				h0.81v-4.8h-2.98V82.72z"/>
			<path class="st7" d="M133.08,82.65c0.27-0.18,0.49-0.4,0.68-0.66c0.19-0.26,0.33-0.55,0.44-0.88c0.11-0.33,0.16-0.67,0.16-1.02
				c0-0.38-0.07-0.75-0.21-1.11c-0.14-0.37-0.34-0.69-0.6-0.98c-0.26-0.29-0.56-0.52-0.91-0.7c-0.35-0.18-0.74-0.27-1.16-0.27h-4.12
				v9.76h0.96v-3.6h2.89l2.29,3.6h1.09l-2.39-3.77C132.52,82.95,132.81,82.83,133.08,82.65z M128.31,82.33v-4.46h3.11
				c0.27,0,0.52,0.06,0.76,0.18c0.24,0.12,0.45,0.28,0.63,0.48c0.18,0.2,0.32,0.44,0.43,0.71c0.11,0.27,0.16,0.55,0.16,0.84
				c0,0.29-0.05,0.57-0.14,0.84c-0.09,0.27-0.22,0.5-0.39,0.71c-0.16,0.21-0.36,0.38-0.6,0.5c-0.23,0.12-0.49,0.19-0.78,0.19H128.31
				z"/>
			<path class="st7" d="M146.87,78.52c-0.4-0.47-0.88-0.84-1.44-1.13c-0.56-0.29-1.18-0.43-1.86-0.43c-0.65,0-1.26,0.13-1.81,0.41
				c-0.56,0.27-1.05,0.63-1.46,1.09c-0.41,0.46-0.74,0.99-0.97,1.58c-0.23,0.6-0.35,1.22-0.35,1.87c0,0.62,0.11,1.23,0.33,1.83
				c0.22,0.59,0.53,1.12,0.94,1.59c0.4,0.46,0.88,0.83,1.45,1.11c0.56,0.28,1.18,0.42,1.86,0.42c0.65,0,1.26-0.13,1.81-0.4
				c0.56-0.27,1.04-0.63,1.45-1.09c0.41-0.45,0.73-0.98,0.96-1.57c0.23-0.6,0.35-1.22,0.35-1.87c0-0.61-0.11-1.22-0.33-1.81
				C147.58,79.51,147.27,78.98,146.87,78.52z M146.92,83.38c-0.17,0.49-0.41,0.92-0.72,1.31c-0.31,0.39-0.69,0.7-1.14,0.94
				c-0.45,0.24-0.95,0.36-1.5,0.36c-0.54,0-1.03-0.11-1.47-0.34c-0.44-0.22-0.82-0.53-1.14-0.91c-0.32-0.38-0.57-0.82-0.74-1.31
				c-0.17-0.49-0.26-1-0.26-1.53c0-0.5,0.08-1,0.25-1.49c0.17-0.49,0.41-0.92,0.72-1.31c0.31-0.38,0.69-0.7,1.14-0.93
				c0.45-0.23,0.95-0.35,1.5-0.35c0.53,0,1.02,0.11,1.46,0.34c0.44,0.22,0.82,0.52,1.14,0.9c0.32,0.38,0.57,0.81,0.75,1.3
				c0.18,0.49,0.27,1,0.27,1.53C147.17,82.4,147.08,82.9,146.92,83.38z"/>
			<path class="st7" d="M160.37,81.94c0,0.49-0.05,0.98-0.14,1.47c-0.1,0.49-0.27,0.92-0.51,1.3c-0.24,0.38-0.57,0.69-0.98,0.92
				c-0.41,0.23-0.92,0.35-1.53,0.35c-0.61,0-1.11-0.12-1.51-0.34c-0.4-0.23-0.73-0.53-0.97-0.91c-0.24-0.38-0.41-0.81-0.52-1.29
				c-0.1-0.49-0.15-0.99-0.15-1.5v-4.92h-0.95v4.92c0,0.62,0.07,1.23,0.21,1.81c0.14,0.59,0.37,1.11,0.69,1.57
				c0.32,0.46,0.74,0.83,1.27,1.11c0.53,0.28,1.18,0.42,1.95,0.42c0.75,0,1.39-0.13,1.91-0.4c0.52-0.27,0.95-0.62,1.27-1.07
				c0.33-0.45,0.56-0.97,0.71-1.56c0.15-0.59,0.22-1.22,0.22-1.88v-4.92h-0.96V81.94z"/>
			<polygon class="st7" points="174.13,85.14 167.67,77.02 166.92,77.02 166.92,86.78 167.88,86.78 167.88,78.81 174.25,86.78 
				175.09,86.78 175.09,77.03 174.13,77.03 			"/>
			<path class="st7" d="M187.65,78.45c-0.39-0.44-0.88-0.79-1.46-1.04c-0.58-0.26-1.26-0.38-2.04-0.38h-3.31v9.76h3.31
				c0.71,0,1.36-0.12,1.93-0.35c0.57-0.23,1.06-0.56,1.47-0.99c0.41-0.43,0.72-0.94,0.94-1.54c0.22-0.6,0.33-1.27,0.33-2.01
				c0-0.67-0.1-1.3-0.29-1.89C188.33,79.4,188.04,78.89,187.65,78.45z M187.62,83.49c-0.16,0.49-0.4,0.92-0.71,1.28
				c-0.31,0.36-0.7,0.65-1.16,0.85c-0.46,0.21-1,0.31-1.6,0.31h-2.35v-8.06h2.35c0.6,0,1.12,0.1,1.58,0.3
				c0.46,0.2,0.85,0.47,1.16,0.83c0.32,0.36,0.56,0.78,0.72,1.27c0.16,0.49,0.25,1.03,0.25,1.62
				C187.86,82.46,187.78,83,187.62,83.49z"/>
			<polygon class="st7" points="84.38,71.87 90.67,71.87 101.48,44.27 93.24,44.27 87.29,63.2 85.31,57.44 89.86,44.27 82.9,44.27 
				80.45,52.78 78.04,44.27 71.08,44.27 75.55,57.44 73.65,63.2 67.66,44.27 59.46,44.27 70.27,71.87 76.56,71.87 80.45,61.99 			
				"/>
			<path class="st7" d="M108.25,44.27l-9.6,27.6h7.74l1.63-5.4h7.35l1.67,5.4h7.7l-9.56-27.6H108.25z M109.14,61.41l2.57-8.55
				l2.45,8.55H109.14z"/>
			<polygon class="st7" points="135.5,62.34 130.09,44.27 122.08,44.27 132.35,71.87 138.64,71.87 148.79,44.27 140.82,44.27 			"/>
			<polygon class="st7" points="170.56,65.26 158.47,65.26 158.47,60.9 168.5,60.9 168.5,54.76 158.47,54.76 158.47,50.87 
				170.21,50.87 170.21,44.27 150.89,44.27 150.89,71.87 170.56,71.87 			"/>
			<path class="st7" d="M194.74,63.43c0-1.29-0.2-2.4-0.58-3.3c-0.39-0.91-0.95-1.68-1.67-2.31c-0.72-0.63-1.6-1.19-2.62-1.65
				c-1.03-0.47-2.17-0.89-3.44-1.28c-0.8-0.26-1.52-0.48-2.16-0.66c-0.64-0.18-1.17-0.37-1.61-0.56c-0.44-0.19-0.78-0.41-1.01-0.64
				c-0.23-0.23-0.35-0.53-0.35-0.89c0-0.49,0.2-0.84,0.6-1.05c0.4-0.21,0.94-0.31,1.61-0.31c0.83,0,1.68,0.13,2.54,0.41
				c0.87,0.27,1.65,0.56,2.35,0.87c0.83,0.36,1.63,0.78,2.41,1.24l3.26-6.26c-0.62-0.31-1.32-0.64-2.1-0.99
				c-0.78-0.35-1.61-0.67-2.51-0.97c-0.89-0.3-1.82-0.54-2.78-0.74c-0.96-0.19-1.95-0.29-2.96-0.29c-1.37,0-2.68,0.2-3.91,0.6
				c-1.23,0.4-2.33,0.99-3.28,1.77c-0.96,0.78-1.72,1.75-2.28,2.92c-0.56,1.17-0.83,2.51-0.83,4.04c0,1.01,0.13,1.9,0.41,2.68
				c0.27,0.78,0.69,1.47,1.26,2.08c0.57,0.61,1.3,1.15,2.18,1.63c0.88,0.48,1.93,0.93,3.15,1.34c0.83,0.29,1.61,0.53,2.35,0.74
				c0.74,0.21,1.39,0.42,1.96,0.62c0.57,0.21,1.02,0.45,1.34,0.72c0.32,0.27,0.49,0.6,0.49,0.99c0,0.36-0.16,0.66-0.49,0.88
				c-0.32,0.22-0.9,0.33-1.73,0.33c-1.09,0-2.16-0.15-3.21-0.47c-1.05-0.31-1.99-0.66-2.82-1.05c-0.98-0.44-1.93-0.95-2.84-1.52
				l-3.26,6.65c0.83,0.49,1.73,0.93,2.7,1.32c0.97,0.39,1.98,0.73,3.03,1.01c1.05,0.29,2.11,0.5,3.17,0.66
				c1.06,0.16,2.1,0.23,3.11,0.23c1.27,0,2.53-0.15,3.79-0.45c1.26-0.3,2.38-0.78,3.38-1.46c1-0.67,1.8-1.57,2.41-2.7
				C194.44,66.48,194.74,65.09,194.74,63.43z"/>
			<polygon class="st7" points="163.85,34.72 163.85,35.72 207.94,35.72 207.94,80.79 192.85,80.79 192.85,81.79 208.94,81.79 
				208.94,34.72 			"/>
			<polygon class="st7" points="42.26,35.72 89.21,35.72 89.21,34.72 41.26,34.72 41.26,81.79 60.21,81.79 60.21,80.79 42.26,80.79 
							"/>
		</g>
	</g>
</g>
<g id="Layer_1">
</g>
</svg>
